
<global>
amp_veltrack=0
ampeg_attack=0.001
ampeg_release=1.25
</global>

<group>
color=red
group_label=Main_Hits_RR1
seq_length=8
seq_position=1

<region>
hivel=25
key=D3
lovel=0
offset=4539
sample=Snare_SnareOn_RubberTip_Hits_P_D3_RR1.opus
</region>

<region>
hivel=50
key=D3
lovel=26
offset=632
sample=Snare_SnareOn_RubberTip_Hits_MP_D3_RR1.opus
</region>

<region>
hivel=75
key=D3
lovel=51
offset=579
sample=Snare_SnareOn_RubberTip_Hits_MF_D3_RR1.opus
</region>

<region>
hivel=127
key=D3
lovel=101
offset=588
sample=Snare_SnareOn_RubberTip_Hits_FF_D3_RR1.opus
</region>

<region>
hivel=100
key=D3
lovel=76
offset=582
sample=Snare_SnareOn_RubberTip_Hits_F_D3_RR1.opus
</region>

<region>
hivel=25
key=D#3
lovel=0
offset=1941
sample=Snare_SnareOn_RubberTip_Halfway_Hits_P_D3_RR1.opus
</region>

<region>
hivel=50
key=D#3
lovel=26
offset=4453
sample=Snare_SnareOn_RubberTip_Halfway_Hits_MP_D3_RR1.opus
</region>

<region>
hivel=75
key=D#3
lovel=51
offset=684
sample=Snare_SnareOn_RubberTip_Halfway_Hits_MF_D3_RR1.opus
</region>

<region>
hivel=127
key=D#3
lovel=101
offset=620
sample=Snare_SnareOn_RubberTip_Halfway_Hits_FF_D3_RR1.opus
</region>

<region>
hivel=100
key=D#3
lovel=76
offset=640
sample=Snare_SnareOn_RubberTip_Halfway_Hits_F_D3_RR1.opus
</region>

<region>
hivel=25
key=E3
lovel=0
offset=3766
sample=Snare_SnareOn_RubberTip_Edge_Hits_P_D3_RR1.opus
</region>

<region>
hivel=50
key=E3
lovel=26
offset=619
sample=Snare_SnareOn_RubberTip_Edge_Hits_MP_D3_RR1.opus
</region>

<region>
hivel=75
key=E3
lovel=51
offset=688
sample=Snare_SnareOn_RubberTip_Edge_Hits_MF_D3_RR1.opus
</region>

<region>
hivel=127
key=E3
lovel=101
offset=575
sample=Snare_SnareOn_RubberTip_Edge_Hits_FF_D3_RR1.opus
</region>

<region>
hivel=100
key=E3
lovel=76
offset=809
sample=Snare_SnareOn_RubberTip_Edge_Hits_F_D3_RR1.opus
</region>
</group>

<group>
color=red
group_label=Main_Hits_RR2
seq_length=8
seq_position=2

<region>
hivel=25
key=D3
lovel=0
offset=4095
sample=Snare_SnareOn_RubberTip_Hits_P_D3_RR2.opus
</region>

<region>
hivel=50
key=D3
lovel=26
offset=653
sample=Snare_SnareOn_RubberTip_Hits_MP_D3_RR2.opus
</region>

<region>
hivel=75
key=D3
lovel=51
offset=561
sample=Snare_SnareOn_RubberTip_Hits_MF_D3_RR2.opus
</region>

<region>
hivel=127
key=D3
lovel=101
offset=626
sample=Snare_SnareOn_RubberTip_Hits_FF_D3_RR2.opus
</region>

<region>
hivel=100
key=D3
lovel=76
offset=615
sample=Snare_SnareOn_RubberTip_Hits_F_D3_RR2.opus
</region>

<region>
hivel=25
key=D#3
lovel=0
offset=3672
sample=Snare_SnareOn_RubberTip_Halfway_Hits_P_D3_RR2.opus
</region>

<region>
hivel=50
key=D#3
lovel=26
offset=3440
sample=Snare_SnareOn_RubberTip_Halfway_Hits_MP_D3_RR2.opus
</region>

<region>
hivel=75
key=D#3
lovel=51
offset=572
sample=Snare_SnareOn_RubberTip_Halfway_Hits_MF_D3_RR2.opus
</region>

<region>
hivel=127
key=D#3
lovel=101
offset=576
sample=Snare_SnareOn_RubberTip_Halfway_Hits_FF_D3_RR2.opus
</region>

<region>
hivel=100
key=D#3
lovel=76
offset=591
sample=Snare_SnareOn_RubberTip_Halfway_Hits_F_D3_RR2.opus
</region>

<region>
hivel=25
key=E3
lovel=0
offset=4443
sample=Snare_SnareOn_RubberTip_Edge_Hits_P_D3_RR2.opus
</region>

<region>
hivel=50
key=E3
lovel=26
offset=676
sample=Snare_SnareOn_RubberTip_Edge_Hits_MP_D3_RR2.opus
</region>

<region>
hivel=75
key=E3
lovel=51
offset=586
sample=Snare_SnareOn_RubberTip_Edge_Hits_MF_D3_RR2.opus
</region>

<region>
hivel=127
key=E3
lovel=101
offset=719
sample=Snare_SnareOn_RubberTip_Edge_Hits_FF_D3_RR2.opus
</region>

<region>
hivel=100
key=E3
lovel=76
offset=805
sample=Snare_SnareOn_RubberTip_Edge_Hits_F_D3_RR2.opus
</region>
</group>

<group>
color=red
group_label=Main_Hits_RR3
seq_length=8
seq_position=3

<region>
hivel=25
key=D3
lovel=0
offset=651
sample=Snare_SnareOn_RubberTip_Hits_P_D3_RR3.opus
</region>

<region>
hivel=50
key=D3
lovel=26
offset=629
sample=Snare_SnareOn_RubberTip_Hits_MP_D3_RR3.opus
</region>

<region>
hivel=75
key=D3
lovel=51
offset=677
sample=Snare_SnareOn_RubberTip_Hits_MF_D3_RR3.opus
</region>

<region>
hivel=127
key=D3
lovel=101
offset=644
sample=Snare_SnareOn_RubberTip_Hits_FF_D3_RR3.opus
</region>

<region>
hivel=100
key=D3
lovel=76
offset=697
sample=Snare_SnareOn_RubberTip_Hits_F_D3_RR3.opus
</region>

<region>
hivel=25
key=D#3
lovel=0
offset=3684
sample=Snare_SnareOn_RubberTip_Halfway_Hits_P_D3_RR3.opus
</region>

<region>
hivel=50
key=D#3
lovel=26
offset=651
sample=Snare_SnareOn_RubberTip_Halfway_Hits_MP_D3_RR3.opus
</region>

<region>
hivel=75
key=D#3
lovel=51
offset=647
sample=Snare_SnareOn_RubberTip_Halfway_Hits_MF_D3_RR3.opus
</region>

<region>
hivel=127
key=D#3
lovel=101
offset=693
sample=Snare_SnareOn_RubberTip_Halfway_Hits_FF_D3_RR3.opus
</region>

<region>
hivel=100
key=D#3
lovel=76
offset=692
sample=Snare_SnareOn_RubberTip_Halfway_Hits_F_D3_RR3.opus
</region>

<region>
hivel=25
key=E3
lovel=0
offset=4421
sample=Snare_SnareOn_RubberTip_Edge_Hits_P_D3_RR3.opus
</region>

<region>
hivel=50
key=E3
lovel=26
offset=3324
sample=Snare_SnareOn_RubberTip_Edge_Hits_MP_D3_RR3.opus
</region>

<region>
hivel=75
key=E3
lovel=51
offset=508
sample=Snare_SnareOn_RubberTip_Edge_Hits_MF_D3_RR3.opus
</region>

<region>
hivel=127
key=E3
lovel=101
offset=524
sample=Snare_SnareOn_RubberTip_Edge_Hits_FF_D3_RR3.opus
</region>

<region>
hivel=100
key=E3
lovel=76
offset=690
sample=Snare_SnareOn_RubberTip_Edge_Hits_F_D3_RR3.opus
</region>
</group>

<group>
color=red
group_label=Main_Hits_RR4
seq_length=8
seq_position=4

<region>
hivel=25
key=D3
lovel=0
offset=722
sample=Snare_SnareOn_RubberTip_Hits_P_D3_RR4.opus
</region>

<region>
hivel=50
key=D3
lovel=26
offset=555
sample=Snare_SnareOn_RubberTip_Hits_MP_D3_RR4.opus
</region>

<region>
hivel=75
key=D3
lovel=51
offset=346
sample=Snare_SnareOn_RubberTip_Hits_MF_D3_RR4.opus
</region>

<region>
hivel=127
key=D3
lovel=101
offset=587
sample=Snare_SnareOn_RubberTip_Hits_FF_D3_RR4.opus
</region>

<region>
hivel=100
key=D3
lovel=76
offset=583
sample=Snare_SnareOn_RubberTip_Hits_F_D3_RR4.opus
</region>

<region>
hivel=25
key=D#3
lovel=0
offset=587
sample=Snare_SnareOn_RubberTip_Halfway_Hits_P_D3_RR4.opus
</region>

<region>
hivel=50
key=D#3
lovel=26
offset=532
sample=Snare_SnareOn_RubberTip_Halfway_Hits_MP_D3_RR4.opus
</region>

<region>
hivel=75
key=D#3
lovel=51
offset=694
sample=Snare_SnareOn_RubberTip_Halfway_Hits_MF_D3_RR4.opus
</region>

<region>
hivel=127
key=D#3
lovel=101
offset=592
sample=Snare_SnareOn_RubberTip_Halfway_Hits_FF_D3_RR4.opus
</region>

<region>
hivel=100
key=D#3
lovel=76
offset=697
sample=Snare_SnareOn_RubberTip_Halfway_Hits_F_D3_RR4.opus
</region>

<region>
hivel=25
key=E3
lovel=0
offset=2376
sample=Snare_SnareOn_RubberTip_Edge_Hits_P_D3_RR4.opus
</region>

<region>
hivel=50
key=E3
lovel=26
offset=584
sample=Snare_SnareOn_RubberTip_Edge_Hits_MP_D3_RR4.opus
</region>

<region>
hivel=75
key=E3
lovel=51
offset=643
sample=Snare_SnareOn_RubberTip_Edge_Hits_MF_D3_RR4.opus
</region>

<region>
hivel=127
key=E3
lovel=101
offset=726
sample=Snare_SnareOn_RubberTip_Edge_Hits_FF_D3_RR4.opus
</region>

<region>
hivel=100
key=E3
lovel=76
offset=681
sample=Snare_SnareOn_RubberTip_Edge_Hits_F_D3_RR4.opus
</region>
</group>

<group>
color=red
group_label=Main_Hits_RR5
seq_length=8
seq_position=5

<region>
hivel=25
key=D3
lovel=0
offset=713
sample=Snare_SnareOn_RubberTip_Hits_P_D3_RR5.opus
</region>

<region>
hivel=50
key=D3
lovel=26
offset=638
sample=Snare_SnareOn_RubberTip_Hits_MP_D3_RR5.opus
</region>

<region>
hivel=75
key=D3
lovel=51
offset=596
sample=Snare_SnareOn_RubberTip_Hits_MF_D3_RR5.opus
</region>

<region>
hivel=127
key=D3
lovel=101
offset=734
sample=Snare_SnareOn_RubberTip_Hits_FF_D3_RR5.opus
</region>

<region>
hivel=100
key=D3
lovel=76
offset=644
sample=Snare_SnareOn_RubberTip_Hits_F_D3_RR5.opus
</region>

<region>
hivel=25
key=D#3
lovel=0
offset=2054
sample=Snare_SnareOn_RubberTip_Halfway_Hits_P_D3_RR5.opus
</region>

<region>
hivel=50
key=D#3
lovel=26
offset=5115
sample=Snare_SnareOn_RubberTip_Halfway_Hits_MP_D3_RR5.opus
</region>

<region>
hivel=75
key=D#3
lovel=51
offset=608
sample=Snare_SnareOn_RubberTip_Halfway_Hits_MF_D3_RR5.opus
</region>

<region>
hivel=127
key=D#3
lovel=101
offset=589
sample=Snare_SnareOn_RubberTip_Halfway_Hits_FF_D3_RR5.opus
</region>

<region>
hivel=100
key=D#3
lovel=76
offset=624
sample=Snare_SnareOn_RubberTip_Halfway_Hits_F_D3_RR5.opus
</region>

<region>
hivel=25
key=E3
lovel=0
offset=3594
sample=Snare_SnareOn_RubberTip_Edge_Hits_P_D3_RR5.opus
</region>

<region>
hivel=50
key=E3
lovel=26
offset=680
sample=Snare_SnareOn_RubberTip_Edge_Hits_MP_D3_RR5.opus
</region>

<region>
hivel=75
key=E3
lovel=51
offset=687
sample=Snare_SnareOn_RubberTip_Edge_Hits_MF_D3_RR5.opus
</region>

<region>
hivel=127
key=E3
lovel=101
offset=688
sample=Snare_SnareOn_RubberTip_Edge_Hits_FF_D3_RR5.opus
</region>

<region>
hivel=100
key=E3
lovel=76
offset=787
sample=Snare_SnareOn_RubberTip_Edge_Hits_F_D3_RR5.opus
</region>
</group>

<group>
color=red
group_label=Main_Hits_RR6
seq_length=8
seq_position=6

<region>
hivel=25
key=D3
lovel=0
offset=3184
sample=Snare_SnareOn_RubberTip_Hits_P_D3_RR6.opus
</region>

<region>
hivel=50
key=D3
lovel=26
offset=636
sample=Snare_SnareOn_RubberTip_Hits_MP_D3_RR6.opus
</region>

<region>
hivel=75
key=D3
lovel=51
offset=632
sample=Snare_SnareOn_RubberTip_Hits_MF_D3_RR6.opus
</region>

<region>
hivel=127
key=D3
lovel=101
offset=640
sample=Snare_SnareOn_RubberTip_Hits_FF_D3_RR6.opus
</region>

<region>
hivel=100
key=D3
lovel=76
offset=584
sample=Snare_SnareOn_RubberTip_Hits_F_D3_RR6.opus
</region>

<region>
hivel=25
key=D#3
lovel=0
offset=2082
sample=Snare_SnareOn_RubberTip_Halfway_Hits_P_D3_RR6.opus
</region>

<region>
hivel=50
key=D#3
lovel=26
offset=657
sample=Snare_SnareOn_RubberTip_Halfway_Hits_MP_D3_RR6.opus
</region>

<region>
hivel=75
key=D#3
lovel=51
offset=530
sample=Snare_SnareOn_RubberTip_Halfway_Hits_MF_D3_RR6.opus
</region>

<region>
hivel=127
key=D#3
lovel=101
offset=624
sample=Snare_SnareOn_RubberTip_Halfway_Hits_FF_D3_RR6.opus
</region>

<region>
hivel=100
key=D#3
lovel=76
offset=589
sample=Snare_SnareOn_RubberTip_Halfway_Hits_F_D3_RR6.opus
</region>

<region>
hivel=25
key=E3
lovel=0
offset=3516
sample=Snare_SnareOn_RubberTip_Edge_Hits_P_D3_RR6.opus
</region>

<region>
hivel=50
key=E3
lovel=26
offset=509
sample=Snare_SnareOn_RubberTip_Edge_Hits_MP_D3_RR6.opus
</region>

<region>
hivel=75
key=E3
lovel=51
offset=641
sample=Snare_SnareOn_RubberTip_Edge_Hits_MF_D3_RR6.opus
</region>

<region>
hivel=127
key=E3
lovel=101
offset=830
sample=Snare_SnareOn_RubberTip_Edge_Hits_FF_D3_RR6.opus
</region>

<region>
hivel=100
key=E3
lovel=76
offset=714
sample=Snare_SnareOn_RubberTip_Edge_Hits_F_D3_RR6.opus
</region>
</group>

<group>
color=red
group_label=Main_Hits_RR7
seq_length=8
seq_position=7

<region>
hivel=25
key=D3
lovel=0
offset=4252
sample=Snare_SnareOn_RubberTip_Hits_P_D3_RR7.opus
</region>

<region>
hivel=50
key=D3
lovel=26
offset=642
sample=Snare_SnareOn_RubberTip_Hits_MP_D3_RR7.opus
</region>

<region>
hivel=75
key=D3
lovel=51
offset=673
sample=Snare_SnareOn_RubberTip_Hits_MF_D3_RR7.opus
</region>

<region>
hivel=127
key=D3
lovel=101
offset=582
sample=Snare_SnareOn_RubberTip_Hits_FF_D3_RR7.opus
</region>

<region>
hivel=100
key=D3
lovel=76
offset=615
sample=Snare_SnareOn_RubberTip_Hits_F_D3_RR7.opus
</region>

<region>
hivel=25
key=D#3
lovel=0
offset=669
sample=Snare_SnareOn_RubberTip_Halfway_Hits_P_D3_RR7.opus
</region>

<region>
hivel=50
key=D#3
lovel=26
offset=624
sample=Snare_SnareOn_RubberTip_Halfway_Hits_MP_D3_RR7.opus
</region>

<region>
hivel=75
key=D#3
lovel=51
offset=694
sample=Snare_SnareOn_RubberTip_Halfway_Hits_MF_D3_RR7.opus
</region>

<region>
hivel=127
key=D#3
lovel=101
offset=649
sample=Snare_SnareOn_RubberTip_Halfway_Hits_FF_D3_RR7.opus
</region>

<region>
hivel=100
key=D#3
lovel=76
offset=613
sample=Snare_SnareOn_RubberTip_Halfway_Hits_F_D3_RR7.opus
</region>

<region>
hivel=25
key=E3
lovel=0
offset=3502
sample=Snare_SnareOn_RubberTip_Edge_Hits_P_D3_RR7.opus
</region>

<region>
hivel=50
key=E3
lovel=26
offset=684
sample=Snare_SnareOn_RubberTip_Edge_Hits_MP_D3_RR7.opus
</region>

<region>
hivel=75
key=E3
lovel=51
offset=534
sample=Snare_SnareOn_RubberTip_Edge_Hits_MF_D3_RR7.opus
</region>

<region>
hivel=127
key=E3
lovel=101
offset=805
sample=Snare_SnareOn_RubberTip_Edge_Hits_FF_D3_RR7.opus
</region>

<region>
hivel=100
key=E3
lovel=76
offset=668
sample=Snare_SnareOn_RubberTip_Edge_Hits_F_D3_RR7.opus
</region>
</group>

<group>
color=red
group_label=Main_Hits_RR8
seq_length=8
seq_position=8

<region>
hivel=25
key=D3
lovel=0
offset=667
sample=Snare_SnareOn_RubberTip_Hits_P_D3_RR8.opus
</region>

<region>
hivel=50
key=D3
lovel=26
offset=585
sample=Snare_SnareOn_RubberTip_Hits_MP_D3_RR8.opus
</region>

<region>
hivel=75
key=D3
lovel=51
offset=645
sample=Snare_SnareOn_RubberTip_Hits_MF_D3_RR8.opus
</region>

<region>
hivel=127
key=D3
lovel=101
offset=704
sample=Snare_SnareOn_RubberTip_Hits_FF_D3_RR8.opus
</region>

<region>
hivel=100
key=D3
lovel=76
offset=581
sample=Snare_SnareOn_RubberTip_Hits_F_D3_RR8.opus
</region>

<region>
hivel=25
key=D#3
lovel=0
offset=634
sample=Snare_SnareOn_RubberTip_Halfway_Hits_P_D3_RR8.opus
</region>

<region>
hivel=50
key=D#3
lovel=26
offset=3224
sample=Snare_SnareOn_RubberTip_Halfway_Hits_MP_D3_RR8.opus
</region>

<region>
hivel=75
key=D#3
lovel=51
offset=706
sample=Snare_SnareOn_RubberTip_Halfway_Hits_MF_D3_RR8.opus
</region>

<region>
hivel=127
key=D#3
lovel=101
offset=623
sample=Snare_SnareOn_RubberTip_Halfway_Hits_FF_D3_RR8.opus
</region>

<region>
hivel=100
key=D#3
lovel=76
offset=592
sample=Snare_SnareOn_RubberTip_Halfway_Hits_F_D3_RR8.opus
</region>

<region>
hivel=25
key=E3
lovel=0
offset=3170
sample=Snare_SnareOn_RubberTip_Edge_Hits_P_D3_RR8.opus
</region>

<region>
hivel=50
key=E3
lovel=26
offset=532
sample=Snare_SnareOn_RubberTip_Edge_Hits_MP_D3_RR8.opus
</region>

<region>
hivel=75
key=E3
lovel=51
offset=519
sample=Snare_SnareOn_RubberTip_Edge_Hits_MF_D3_RR8.opus
</region>

<region>
hivel=127
key=E3
lovel=101
offset=719
sample=Snare_SnareOn_RubberTip_Edge_Hits_FF_D3_RR8.opus
</region>

<region>
hivel=100
key=E3
lovel=76
offset=811
sample=Snare_SnareOn_RubberTip_Edge_Hits_F_D3_RR8.opus
</region>
</group>

<group>
color=green
group_label=Alt_Hits_RR1
seq_length=4
seq_position=1

<region>
hivel=25
key=E4
lovel=0
offset=739
sample=Snare_SnareOn_RubberTip_Buzz_Stroke_P_D3_RR1.opus
</region>

<region>
hivel=50
key=E4
lovel=26
offset=681
sample=Snare_SnareOn_RubberTip_Buzz_Stroke_MP_D3_RR1.opus
</region>

<region>
hivel=75
key=E4
lovel=51
offset=610
sample=Snare_SnareOn_RubberTip_Buzz_Stroke_MF_D3_RR1.opus
</region>

<region>
hivel=127
key=E4
lovel=101
offset=657
sample=Snare_SnareOn_RubberTip_Buzz_Stroke_FF_D3_RR1.opus
</region>

<region>
hivel=100
key=E4
lovel=76
offset=692
sample=Snare_SnareOn_RubberTip_Buzz_Stroke_F_D3_RR1.opus
</region>

<region>
hivel=25
key=F4
lovel=0
offset=3759
sample=Snare_SnareOn_RubberTip_Dry_Buzz_Stroke_P_D3_RR1.opus
</region>

<region>
hivel=50
key=F4
lovel=26
offset=711
sample=Snare_SnareOn_RubberTip_Dry_Buzz_Stroke_MP_D3_RR1.opus
</region>

<region>
hivel=75
key=F4
lovel=51
offset=387
sample=Snare_SnareOn_RubberTip_Dry_Buzz_Stroke_MF_D3_RR1.opus
</region>

<region>
hivel=127
key=F4
lovel=101
offset=797
sample=Snare_SnareOn_RubberTip_Dry_Buzz_Stroke_FF_D3_RR1.opus
</region>

<region>
hivel=100
key=F4
lovel=76
offset=583
sample=Snare_SnareOn_RubberTip_Dry_Buzz_Stroke_F_D3_RR1.opus
</region>

<region>
hivel=25
key=F#4
lovel=0
offset=4181
sample=Snare_SnareOn_RubberTip_Edge_Buzz_Stroke_P_D3_RR1.opus
</region>

<region>
hivel=50
key=F#4
lovel=26
offset=2536
sample=Snare_SnareOn_RubberTip_Edge_Buzz_Stroke_MP_D3_RR1.opus
</region>

<region>
hivel=75
key=F#4
lovel=51
offset=701
sample=Snare_SnareOn_RubberTip_Edge_Buzz_Stroke_MF_D3_RR1.opus
</region>

<region>
hivel=127
key=F#4
lovel=101
offset=683
sample=Snare_SnareOn_RubberTip_Edge_Buzz_Stroke_FF_D3_RR1.opus
</region>

<region>
hivel=100
key=F#4
lovel=76
offset=796
sample=Snare_SnareOn_RubberTip_Edge_Buzz_Stroke_F_D3_RR1.opus
</region>

<region>
hivel=25
key=G4
lovel=0
offset=5853
sample=Snare_SnareOn_RubberTip_Edge_Dry_Buzz_Stroke_P_D3_RR1.opus
</region>

<region>
hivel=50
key=G4
lovel=26
offset=3958
sample=Snare_SnareOn_RubberTip_Edge_Dry_Buzz_Stroke_MP_D3_RR1.opus
</region>

<region>
hivel=75
key=G4
lovel=51
offset=556
sample=Snare_SnareOn_RubberTip_Edge_Dry_Buzz_Stroke_MF_D3_RR1.opus
</region>

<region>
hivel=127
key=G4
lovel=101
offset=794
sample=Snare_SnareOn_RubberTip_Edge_Dry_Buzz_Stroke_FF_D3_RR1.opus
</region>

<region>
hivel=100
key=G4
lovel=76
offset=619
sample=Snare_SnareOn_RubberTip_Edge_Dry_Buzz_Stroke_F_D3_RR1.opus
</region>

<region>
hivel=25
key=G#4
lovel=0
offset=1476
sample=Snare_SnareOn_RubberTip_Halfway_Buzz_Stroke_P_D3_RR1.opus
</region>

<region>
hivel=50
key=G#4
lovel=26
offset=683
sample=Snare_SnareOn_RubberTip_Halfway_Buzz_Stroke_MP_D3_RR1.opus
</region>

<region>
hivel=75
key=G#4
lovel=51
offset=667
sample=Snare_SnareOn_RubberTip_Halfway_Buzz_Stroke_MF_D3_RR1.opus
</region>

<region>
hivel=127
key=G#4
lovel=101
offset=726
sample=Snare_SnareOn_RubberTip_Halfway_Buzz_Stroke_FF_D3_RR1.opus
</region>

<region>
hivel=100
key=G#4
lovel=76
offset=671
sample=Snare_SnareOn_RubberTip_Halfway_Buzz_Stroke_F_D3_RR1.opus
</region>

<region>
hivel=25
key=A4
lovel=0
offset=891
sample=Snare_SnareOn_RubberTip_Halfway_Dry_Buzz_Stroke_P_D3_RR1.opus
</region>

<region>
hivel=50
key=A4
lovel=26
offset=626
sample=Snare_SnareOn_RubberTip_Halfway_Dry_Buzz_Stroke_MP_D3_RR1.opus
</region>

<region>
hivel=75
key=A4
lovel=51
offset=641
sample=Snare_SnareOn_RubberTip_Halfway_Dry_Buzz_Stroke_MF_D3_RR1.opus
</region>

<region>
hivel=127
key=A4
lovel=101
offset=580
sample=Snare_SnareOn_RubberTip_Halfway_Dry_Buzz_Stroke_FF_D3_RR1.opus
</region>

<region>
hivel=100
key=A4
lovel=76
offset=633
sample=Snare_SnareOn_RubberTip_Halfway_Dry_Buzz_Stroke_F_D3_RR1.opus
</region>
</group>

<group>
color=green
group_label=Alt_Hits_RR2
seq_length=4
seq_position=2

<region>
hivel=25
key=E4
lovel=0
offset=3795
sample=Snare_SnareOn_RubberTip_Buzz_Stroke_P_D3_RR2.opus
</region>

<region>
hivel=50
key=E4
lovel=26
offset=682
sample=Snare_SnareOn_RubberTip_Buzz_Stroke_MP_D3_RR2.opus
</region>

<region>
hivel=75
key=E4
lovel=51
offset=648
sample=Snare_SnareOn_RubberTip_Buzz_Stroke_MF_D3_RR2.opus
</region>

<region>
hivel=127
key=E4
lovel=101
offset=599
sample=Snare_SnareOn_RubberTip_Buzz_Stroke_FF_D3_RR2.opus
</region>

<region>
hivel=100
key=E4
lovel=76
offset=722
sample=Snare_SnareOn_RubberTip_Buzz_Stroke_F_D3_RR2.opus
</region>

<region>
hivel=25
key=F4
lovel=0
offset=3780
sample=Snare_SnareOn_RubberTip_Dry_Buzz_Stroke_P_D3_RR2.opus
</region>

<region>
hivel=50
key=F4
lovel=26
offset=655
sample=Snare_SnareOn_RubberTip_Dry_Buzz_Stroke_MP_D3_RR2.opus
</region>

<region>
hivel=75
key=F4
lovel=51
offset=574
sample=Snare_SnareOn_RubberTip_Dry_Buzz_Stroke_MF_D3_RR2.opus
</region>

<region>
hivel=127
key=F4
lovel=101
offset=686
sample=Snare_SnareOn_RubberTip_Dry_Buzz_Stroke_FF_D3_RR2.opus
</region>

<region>
hivel=100
key=F4
lovel=76
offset=795
sample=Snare_SnareOn_RubberTip_Dry_Buzz_Stroke_F_D3_RR2.opus
</region>

<region>
hivel=25
key=F#4
lovel=0
offset=3451
sample=Snare_SnareOn_RubberTip_Edge_Buzz_Stroke_P_D3_RR2.opus
</region>

<region>
hivel=50
key=F#4
lovel=26
offset=639
sample=Snare_SnareOn_RubberTip_Edge_Buzz_Stroke_MP_D3_RR2.opus
</region>

<region>
hivel=75
key=F#4
lovel=51
offset=732
sample=Snare_SnareOn_RubberTip_Edge_Buzz_Stroke_MF_D3_RR2.opus
</region>

<region>
hivel=127
key=F#4
lovel=101
offset=695
sample=Snare_SnareOn_RubberTip_Edge_Buzz_Stroke_FF_D3_RR2.opus
</region>

<region>
hivel=100
key=F#4
lovel=76
offset=793
sample=Snare_SnareOn_RubberTip_Edge_Buzz_Stroke_F_D3_RR2.opus
</region>

<region>
hivel=25
key=G4
lovel=0
offset=2695
sample=Snare_SnareOn_RubberTip_Edge_Dry_Buzz_Stroke_P_D3_RR2.opus
</region>

<region>
hivel=50
key=G4
lovel=26
offset=4360
sample=Snare_SnareOn_RubberTip_Edge_Dry_Buzz_Stroke_MP_D3_RR2.opus
</region>

<region>
hivel=75
key=G4
lovel=51
offset=603
sample=Snare_SnareOn_RubberTip_Edge_Dry_Buzz_Stroke_MF_D3_RR2.opus
</region>

<region>
hivel=127
key=G4
lovel=101
offset=677
sample=Snare_SnareOn_RubberTip_Edge_Dry_Buzz_Stroke_FF_D3_RR2.opus
</region>

<region>
hivel=100
key=G4
lovel=76
offset=706
sample=Snare_SnareOn_RubberTip_Edge_Dry_Buzz_Stroke_F_D3_RR2.opus
</region>

<region>
hivel=25
key=G#4
lovel=0
offset=3194
sample=Snare_SnareOn_RubberTip_Halfway_Buzz_Stroke_P_D3_RR2.opus
</region>

<region>
hivel=50
key=G#4
lovel=26
offset=536
sample=Snare_SnareOn_RubberTip_Halfway_Buzz_Stroke_MP_D3_RR2.opus
</region>

<region>
hivel=75
key=G#4
lovel=51
offset=689
sample=Snare_SnareOn_RubberTip_Halfway_Buzz_Stroke_MF_D3_RR2.opus
</region>

<region>
hivel=127
key=G#4
lovel=101
offset=727
sample=Snare_SnareOn_RubberTip_Halfway_Buzz_Stroke_FF_D3_RR2.opus
</region>

<region>
hivel=100
key=G#4
lovel=76
offset=672
sample=Snare_SnareOn_RubberTip_Halfway_Buzz_Stroke_F_D3_RR2.opus
</region>

<region>
hivel=25
key=A4
lovel=0
offset=2447
sample=Snare_SnareOn_RubberTip_Halfway_Dry_Buzz_Stroke_P_D3_RR2.opus
</region>

<region>
hivel=50
key=A4
lovel=26
offset=647
sample=Snare_SnareOn_RubberTip_Halfway_Dry_Buzz_Stroke_MP_D3_RR2.opus
</region>

<region>
hivel=75
key=A4
lovel=51
offset=501
sample=Snare_SnareOn_RubberTip_Halfway_Dry_Buzz_Stroke_MF_D3_RR2.opus
</region>

<region>
hivel=127
key=A4
lovel=101
offset=688
sample=Snare_SnareOn_RubberTip_Halfway_Dry_Buzz_Stroke_FF_D3_RR2.opus
</region>

<region>
hivel=100
key=A4
lovel=76
offset=721
sample=Snare_SnareOn_RubberTip_Halfway_Dry_Buzz_Stroke_F_D3_RR2.opus
</region>
</group>

<group>
color=green
group_label=Alt_Hits_RR3
seq_length=4
seq_position=3

<region>
hivel=25
key=E4
lovel=0
offset=4047
sample=Snare_SnareOn_RubberTip_Buzz_Stroke_P_D3_RR3.opus
</region>

<region>
hivel=50
key=E4
lovel=26
offset=662
sample=Snare_SnareOn_RubberTip_Buzz_Stroke_MP_D3_RR3.opus
</region>

<region>
hivel=75
key=E4
lovel=51
offset=678
sample=Snare_SnareOn_RubberTip_Buzz_Stroke_MF_D3_RR3.opus
</region>

<region>
hivel=127
key=E4
lovel=101
offset=662
sample=Snare_SnareOn_RubberTip_Buzz_Stroke_FF_D3_RR3.opus
</region>

<region>
hivel=100
key=E4
lovel=76
offset=749
sample=Snare_SnareOn_RubberTip_Buzz_Stroke_F_D3_RR3.opus
</region>

<region>
hivel=25
key=F4
lovel=0
offset=2244
sample=Snare_SnareOn_RubberTip_Dry_Buzz_Stroke_P_D3_RR3.opus
</region>

<region>
hivel=50
key=F4
lovel=26
offset=611
sample=Snare_SnareOn_RubberTip_Dry_Buzz_Stroke_MP_D3_RR3.opus
</region>

<region>
hivel=75
key=F4
lovel=51
offset=592
sample=Snare_SnareOn_RubberTip_Dry_Buzz_Stroke_MF_D3_RR3.opus
</region>

<region>
hivel=127
key=F4
lovel=101
offset=693
sample=Snare_SnareOn_RubberTip_Dry_Buzz_Stroke_FF_D3_RR3.opus
</region>

<region>
hivel=100
key=F4
lovel=76
offset=678
sample=Snare_SnareOn_RubberTip_Dry_Buzz_Stroke_F_D3_RR3.opus
</region>

<region>
hivel=25
key=F#4
lovel=0
offset=4431
sample=Snare_SnareOn_RubberTip_Edge_Buzz_Stroke_P_D3_RR3.opus
</region>

<region>
hivel=50
key=F#4
lovel=26
offset=1447
sample=Snare_SnareOn_RubberTip_Edge_Buzz_Stroke_MP_D3_RR3.opus
</region>

<region>
hivel=75
key=F#4
lovel=51
offset=678
sample=Snare_SnareOn_RubberTip_Edge_Buzz_Stroke_MF_D3_RR3.opus
</region>

<region>
hivel=127
key=F#4
lovel=101
offset=790
sample=Snare_SnareOn_RubberTip_Edge_Buzz_Stroke_FF_D3_RR3.opus
</region>

<region>
hivel=100
key=F#4
lovel=76
offset=689
sample=Snare_SnareOn_RubberTip_Edge_Buzz_Stroke_F_D3_RR3.opus
</region>

<region>
hivel=25
key=G4
lovel=0
offset=2947
sample=Snare_SnareOn_RubberTip_Edge_Dry_Buzz_Stroke_P_D3_RR3.opus
</region>

<region>
hivel=50
key=G4
lovel=26
offset=2625
sample=Snare_SnareOn_RubberTip_Edge_Dry_Buzz_Stroke_MP_D3_RR3.opus
</region>

<region>
hivel=75
key=G4
lovel=51
offset=620
sample=Snare_SnareOn_RubberTip_Edge_Dry_Buzz_Stroke_MF_D3_RR3.opus
</region>

<region>
hivel=127
key=G4
lovel=101
offset=794
sample=Snare_SnareOn_RubberTip_Edge_Dry_Buzz_Stroke_FF_D3_RR3.opus
</region>

<region>
hivel=100
key=G4
lovel=76
offset=548
sample=Snare_SnareOn_RubberTip_Edge_Dry_Buzz_Stroke_F_D3_RR3.opus
</region>

<region>
hivel=25
key=G#4
lovel=0
offset=1581
sample=Snare_SnareOn_RubberTip_Halfway_Buzz_Stroke_P_D3_RR3.opus
</region>

<region>
hivel=50
key=G#4
lovel=26
offset=626
sample=Snare_SnareOn_RubberTip_Halfway_Buzz_Stroke_MP_D3_RR3.opus
</region>

<region>
hivel=75
key=G#4
lovel=51
offset=709
sample=Snare_SnareOn_RubberTip_Halfway_Buzz_Stroke_MF_D3_RR3.opus
</region>

<region>
hivel=127
key=G#4
lovel=101
offset=726
sample=Snare_SnareOn_RubberTip_Halfway_Buzz_Stroke_FF_D3_RR3.opus
</region>

<region>
hivel=100
key=G#4
lovel=76
offset=693
sample=Snare_SnareOn_RubberTip_Halfway_Buzz_Stroke_F_D3_RR3.opus
</region>

<region>
hivel=25
key=A4
lovel=0
offset=2286
sample=Snare_SnareOn_RubberTip_Halfway_Dry_Buzz_Stroke_P_D3_RR3.opus
</region>

<region>
hivel=50
key=A4
lovel=26
offset=612
sample=Snare_SnareOn_RubberTip_Halfway_Dry_Buzz_Stroke_MP_D3_RR3.opus
</region>

<region>
hivel=75
key=A4
lovel=51
offset=614
sample=Snare_SnareOn_RubberTip_Halfway_Dry_Buzz_Stroke_MF_D3_RR3.opus
</region>

<region>
hivel=127
key=A4
lovel=101
offset=589
sample=Snare_SnareOn_RubberTip_Halfway_Dry_Buzz_Stroke_FF_D3_RR3.opus
</region>

<region>
hivel=100
key=A4
lovel=76
offset=711
sample=Snare_SnareOn_RubberTip_Halfway_Dry_Buzz_Stroke_F_D3_RR3.opus
</region>
</group>

<group>
color=green
group_label=Alt_Hits_RR4
seq_length=4
seq_position=4

<region>
hivel=25
key=E4
lovel=0
offset=1965
sample=Snare_SnareOn_RubberTip_Buzz_Stroke_P_D3_RR4.opus
</region>

<region>
hivel=50
key=E4
lovel=26
offset=637
sample=Snare_SnareOn_RubberTip_Buzz_Stroke_MP_D3_RR4.opus
</region>

<region>
hivel=75
key=E4
lovel=51
offset=664
sample=Snare_SnareOn_RubberTip_Buzz_Stroke_MF_D3_RR4.opus
</region>

<region>
hivel=127
key=E4
lovel=101
offset=560
sample=Snare_SnareOn_RubberTip_Buzz_Stroke_FF_D3_RR4.opus
</region>

<region>
hivel=100
key=E4
lovel=76
offset=714
sample=Snare_SnareOn_RubberTip_Buzz_Stroke_F_D3_RR4.opus
</region>

<region>
hivel=25
key=F4
lovel=0
offset=1753
sample=Snare_SnareOn_RubberTip_Dry_Buzz_Stroke_P_D3_RR4.opus
</region>

<region>
hivel=50
key=F4
lovel=26
offset=624
sample=Snare_SnareOn_RubberTip_Dry_Buzz_Stroke_MP_D3_RR4.opus
</region>

<region>
hivel=75
key=F4
lovel=51
offset=596
sample=Snare_SnareOn_RubberTip_Dry_Buzz_Stroke_MF_D3_RR4.opus
</region>

<region>
hivel=127
key=F4
lovel=101
offset=692
sample=Snare_SnareOn_RubberTip_Dry_Buzz_Stroke_FF_D3_RR4.opus
</region>

<region>
hivel=100
key=F4
lovel=76
offset=791
sample=Snare_SnareOn_RubberTip_Dry_Buzz_Stroke_F_D3_RR4.opus
</region>

<region>
hivel=25
key=F#4
lovel=0
offset=3347
sample=Snare_SnareOn_RubberTip_Edge_Buzz_Stroke_P_D3_RR4.opus
</region>

<region>
hivel=50
key=F#4
lovel=26
offset=643
sample=Snare_SnareOn_RubberTip_Edge_Buzz_Stroke_MP_D3_RR4.opus
</region>

<region>
hivel=75
key=F#4
lovel=51
offset=655
sample=Snare_SnareOn_RubberTip_Edge_Buzz_Stroke_MF_D3_RR4.opus
</region>

<region>
hivel=127
key=F#4
lovel=101
offset=790
sample=Snare_SnareOn_RubberTip_Edge_Buzz_Stroke_FF_D3_RR4.opus
</region>

<region>
hivel=100
key=F#4
lovel=76
offset=675
sample=Snare_SnareOn_RubberTip_Edge_Buzz_Stroke_F_D3_RR4.opus
</region>

<region>
hivel=25
key=G4
lovel=0
offset=3586
sample=Snare_SnareOn_RubberTip_Edge_Dry_Buzz_Stroke_P_D3_RR4.opus
</region>

<region>
hivel=50
key=G4
lovel=26
offset=4432
sample=Snare_SnareOn_RubberTip_Edge_Dry_Buzz_Stroke_MP_D3_RR4.opus
</region>

<region>
hivel=75
key=G4
lovel=51
offset=665
sample=Snare_SnareOn_RubberTip_Edge_Dry_Buzz_Stroke_MF_D3_RR4.opus
</region>

<region>
hivel=127
key=G4
lovel=101
offset=777
sample=Snare_SnareOn_RubberTip_Edge_Dry_Buzz_Stroke_FF_D3_RR4.opus
</region>

<region>
hivel=100
key=G4
lovel=76
offset=693
sample=Snare_SnareOn_RubberTip_Edge_Dry_Buzz_Stroke_F_D3_RR4.opus
</region>

<region>
hivel=25
key=G#4
lovel=0
offset=2339
sample=Snare_SnareOn_RubberTip_Halfway_Buzz_Stroke_P_D3_RR4.opus
</region>

<region>
hivel=50
key=G#4
lovel=26
offset=663
sample=Snare_SnareOn_RubberTip_Halfway_Buzz_Stroke_MP_D3_RR4.opus
</region>

<region>
hivel=75
key=G#4
lovel=51
offset=670
sample=Snare_SnareOn_RubberTip_Halfway_Buzz_Stroke_MF_D3_RR4.opus
</region>

<region>
hivel=127
key=G#4
lovel=101
offset=586
sample=Snare_SnareOn_RubberTip_Halfway_Buzz_Stroke_FF_D3_RR4.opus
</region>

<region>
hivel=100
key=G#4
lovel=76
offset=690
sample=Snare_SnareOn_RubberTip_Halfway_Buzz_Stroke_F_D3_RR4.opus
</region>

<region>
hivel=25
key=A4
lovel=0
offset=1941
sample=Snare_SnareOn_RubberTip_Halfway_Dry_Buzz_Stroke_P_D3_RR4.opus
</region>

<region>
hivel=50
key=A4
lovel=26
offset=460
sample=Snare_SnareOn_RubberTip_Halfway_Dry_Buzz_Stroke_MP_D3_RR4.opus
</region>

<region>
hivel=75
key=A4
lovel=51
offset=561
sample=Snare_SnareOn_RubberTip_Halfway_Dry_Buzz_Stroke_MF_D3_RR4.opus
</region>

<region>
hivel=127
key=A4
lovel=101
offset=581
sample=Snare_SnareOn_RubberTip_Halfway_Dry_Buzz_Stroke_FF_D3_RR4.opus
</region>

<region>
hivel=100
key=A4
lovel=76
offset=708
sample=Snare_SnareOn_RubberTip_Halfway_Dry_Buzz_Stroke_F_D3_RR4.opus
</region>
</group>

<group>
ampeg_release=0.05
group_label=Rolls_RR1_51-75
seq_length=2
seq_position=1
xfin_hicc1=75
xfin_locc1=51
xfout_hicc1=99
xfout_locc1=75

<region>
hivel=127
key=D2
loop_end=123576
loop_mode=loop_continuous
loop_start=25733
loop_xfade=11713
lovel=1
sample=Snare_SnareOn_RubberTip_Buzz_Roll_MF_D3_RR1.opus
</region>

<region>
hivel=127
key=D#2
loop_end=123546
loop_mode=loop_continuous
loop_start=25727
loop_xfade=11710
lovel=1
sample=Snare_SnareOn_RubberTip_Halfway_Buzz_Roll_MF_D3_RR1.opus
</region>

<region>
hivel=127
key=E2
loop_end=123782
loop_mode=loop_continuous
loop_start=25776
loop_xfade=11733
lovel=1
sample=Snare_SnareOn_RubberTip_Edge_Buzz_Roll_MF_D3_RR1.opus
</region>
</group>

<group>
ampeg_release=0.05
group_label=Rolls_RR1_26-50
seq_length=2
seq_position=1
xfin_hicc1=50
xfin_locc1=26
xfout_hicc1=74
xfout_locc1=50

<region>
hivel=127
key=D2
loop_end=122751
loop_mode=loop_continuous
loop_start=25561
loop_xfade=11635
lovel=1
sample=Snare_SnareOn_RubberTip_Buzz_Roll_MP_D3_RR1.opus
</region>

<region>
hivel=127
key=D#2
loop_end=122946
loop_mode=loop_continuous
loop_start=25602
loop_xfade=11653
lovel=1
sample=Snare_SnareOn_RubberTip_Halfway_Buzz_Roll_MP_D3_RR1.opus
</region>

<region>
hivel=127
key=E2
loop_end=122759
loop_mode=loop_continuous
loop_start=25563
loop_xfade=11636
lovel=1
sample=Snare_SnareOn_RubberTip_Edge_Buzz_Roll_MP_D3_RR1.opus
</region>
</group>

<group>
ampeg_release=0.05
group_label=Rolls_RR1_76-100
seq_length=2
seq_position=1
xfin_hicc1=100
xfin_locc1=76
xfout_hicc1=124
xfout_locc1=100

<region>
hivel=127
key=D2
loop_end=123286
loop_mode=loop_continuous
loop_start=25673
loop_xfade=11685
lovel=1
sample=Snare_SnareOn_RubberTip_Buzz_Roll_F_D3_RR1.opus
</region>

<region>
hivel=127
key=D#2
loop_end=124061
loop_mode=loop_continuous
loop_start=25834
loop_xfade=11759
lovel=1
sample=Snare_SnareOn_RubberTip_Halfway_Buzz_Roll_F_D3_RR1.opus
</region>

<region>
hivel=127
key=E2
loop_end=123107
loop_mode=loop_continuous
loop_start=25635
loop_xfade=11669
lovel=1
sample=Snare_SnareOn_RubberTip_Edge_Buzz_Roll_F_D3_RR1.opus
</region>
</group>

<group>
ampeg_release=0.05
group_label=Rolls_RR1_101-127
seq_length=2
seq_position=1
xfin_hicc1=127
xfin_locc1=101
xfout_hicc1=127
xfout_locc1=127

<region>
hivel=127
key=D2
loop_end=122262
loop_mode=loop_continuous
loop_start=25460
loop_xfade=11588
lovel=1
sample=Snare_SnareOn_RubberTip_Buzz_Roll_FF_D3_RR1.opus
</region>

<region>
hivel=127
key=D#2
loop_end=122838
loop_mode=loop_continuous
loop_start=25579
loop_xfade=11643
lovel=1
sample=Snare_SnareOn_RubberTip_Halfway_Buzz_Roll_FF_D3_RR1.opus
</region>

<region>
hivel=127
key=E2
loop_end=122788
loop_mode=loop_continuous
loop_start=25569
loop_xfade=11638
lovel=1
sample=Snare_SnareOn_RubberTip_Edge_Buzz_Roll_FF_D3_RR1.opus
</region>
</group>

<group>
ampeg_release=0.05
group_label=Rolls_RR1_0-25
seq_length=2
seq_position=1
xfin_hicc1=25
xfout_hicc1=50
xfout_locc1=25

<region>
hivel=127
key=D2
loop_end=122328
loop_mode=loop_continuous
loop_start=25473
loop_xfade=11595
lovel=1
sample=Snare_SnareOn_RubberTip_Buzz_Roll_P_D3_RR1.opus
</region>

<region>
hivel=127
key=D#2
loop_end=122098
loop_mode=loop_continuous
loop_start=25425
loop_xfade=11573
lovel=1
sample=Snare_SnareOn_RubberTip_Halfway_Buzz_Roll_P_D3_RR1.opus
</region>

<region>
hivel=127
key=E2
loop_end=124271
loop_mode=loop_continuous
loop_start=25878
loop_xfade=11779
lovel=1
offset=3223
sample=Snare_SnareOn_RubberTip_Edge_Buzz_Roll_P_D3_RR1.opus
</region>
</group>

<group>
ampeg_release=0.05
group_label=Rolls_RR2_51-75
seq_length=2
seq_position=2
xfin_hicc1=75
xfin_locc1=51
xfout_hicc1=99
xfout_locc1=75

<region>
hivel=127
key=D2
loop_end=122883
loop_mode=loop_continuous
loop_start=25589
loop_xfade=11647
lovel=1
sample=Snare_SnareOn_RubberTip_Buzz_Roll_MF_D3_RR2.opus
</region>

<region>
hivel=127
key=D#2
loop_end=123030
loop_mode=loop_continuous
loop_start=25619
loop_xfade=11661
lovel=1
sample=Snare_SnareOn_RubberTip_Halfway_Buzz_Roll_MF_D3_RR2.opus
</region>

<region>
hivel=127
key=E2
loop_end=123134
loop_mode=loop_continuous
loop_start=25641
loop_xfade=11671
lovel=1
sample=Snare_SnareOn_RubberTip_Edge_Buzz_Roll_MF_D3_RR2.opus
</region>
</group>

<group>
ampeg_release=0.05
group_label=Rolls_RR2_26-50
seq_length=2
seq_position=2
xfin_hicc1=50
xfin_locc1=26
xfout_hicc1=74
xfout_locc1=50

<region>
hivel=127
key=D2
loop_end=122296
loop_mode=loop_continuous
loop_start=25467
loop_xfade=11592
lovel=1
sample=Snare_SnareOn_RubberTip_Buzz_Roll_MP_D3_RR2.opus
</region>

<region>
hivel=127
key=D#2
loop_end=122812
loop_mode=loop_continuous
loop_start=25574
loop_xfade=11641
lovel=1
sample=Snare_SnareOn_RubberTip_Halfway_Buzz_Roll_MP_D3_RR2.opus
</region>

<region>
hivel=127
key=E2
loop_end=122492
loop_mode=loop_continuous
loop_start=25507
loop_xfade=11610
lovel=1
sample=Snare_SnareOn_RubberTip_Edge_Buzz_Roll_MP_D3_RR2.opus
</region>
</group>

<group>
ampeg_release=0.05
group_label=Rolls_RR2_76-100
seq_length=2
seq_position=2
xfin_hicc1=100
xfin_locc1=76
xfout_hicc1=124
xfout_locc1=100

<region>
hivel=127
key=D2
loop_end=122853
loop_mode=loop_continuous
loop_start=25583
loop_xfade=11644
lovel=1
sample=Snare_SnareOn_RubberTip_Buzz_Roll_F_D3_RR2.opus
</region>

<region>
hivel=127
key=D#2
loop_end=123235
loop_mode=loop_continuous
loop_start=25662
loop_xfade=11681
lovel=1
sample=Snare_SnareOn_RubberTip_Halfway_Buzz_Roll_F_D3_RR2.opus
</region>

<region>
hivel=127
key=E2
loop_end=122867
loop_mode=loop_continuous
loop_start=25586
loop_xfade=11646
lovel=1
sample=Snare_SnareOn_RubberTip_Edge_Buzz_Roll_F_D3_RR2.opus
</region>
</group>

<group>
ampeg_release=0.05
group_label=Rolls_RR2_101-127
seq_length=2
seq_position=2
xfin_hicc1=127
xfin_locc1=101
xfout_hicc1=127
xfout_locc1=127

<region>
hivel=127
key=D2
loop_end=122747
loop_mode=loop_continuous
loop_start=25560
loop_xfade=11634
lovel=1
sample=Snare_SnareOn_RubberTip_Buzz_Roll_FF_D3_RR2.opus
</region>

<region>
hivel=127
key=D#2
loop_end=122516
loop_mode=loop_continuous
loop_start=25512
loop_xfade=11613
lovel=1
sample=Snare_SnareOn_RubberTip_Halfway_Buzz_Roll_FF_D3_RR2.opus
</region>

<region>
hivel=127
key=E2
loop_end=122489
loop_mode=loop_continuous
loop_start=25507
loop_xfade=11610
lovel=1
sample=Snare_SnareOn_RubberTip_Edge_Buzz_Roll_FF_D3_RR2.opus
</region>
</group>

<group>
ampeg_release=0.05
group_label=Rolls_RR2_0-25
seq_length=2
seq_position=2
xfin_hicc1=25
xfout_hicc1=50
xfout_locc1=25

<region>
hivel=127
key=D2
loop_end=121751
loop_mode=loop_continuous
loop_start=25353
loop_xfade=11540
lovel=1
sample=Snare_SnareOn_RubberTip_Buzz_Roll_P_D3_RR2.opus
</region>

<region>
hivel=127
key=D#2
loop_end=122458
loop_mode=loop_continuous
loop_start=25500
loop_xfade=11607
lovel=1
sample=Snare_SnareOn_RubberTip_Halfway_Buzz_Roll_P_D3_RR2.opus
</region>

<region>
hivel=127
key=E2
loop_end=123312
loop_mode=loop_continuous
loop_start=25678
loop_xfade=11688
lovel=1
offset=2979
sample=Snare_SnareOn_RubberTip_Edge_Buzz_Roll_P_D3_RR2.opus
</region>
</group>

<group>
amp_veltrack=0
ampeg_attack=0.01
ampeg_release=1.95
group_label=Rolls_RR1_RELEASE_76-100
offset=128000
seq_length=2
seq_position=1
trigger=release
xfin_hicc1=100
xfin_locc1=76
xfout_hicc1=124
xfout_locc1=100

<region>
hivel=127
key=D2
lovel=1
sample=Snare_SnareOn_RubberTip_Buzz_Roll_F_D3_RR1.opus
</region>

<region>
hivel=127
key=D#2
lovel=1
sample=Snare_SnareOn_RubberTip_Halfway_Buzz_Roll_F_D3_RR1.opus
</region>

<region>
hivel=127
key=E2
lovel=1
sample=Snare_SnareOn_RubberTip_Edge_Buzz_Roll_F_D3_RR1.opus
</region>
</group>

<group>
amp_veltrack=0
ampeg_attack=0.01
ampeg_release=1.95
group_label=Rolls_RR1_RELEASE_51-75
offset=128000
seq_length=2
seq_position=1
trigger=release
xfin_hicc1=75
xfin_locc1=51
xfout_hicc1=99
xfout_locc1=75

<region>
hivel=127
key=D2
lovel=1
sample=Snare_SnareOn_RubberTip_Buzz_Roll_MF_D3_RR1.opus
</region>

<region>
hivel=127
key=D#2
lovel=1
sample=Snare_SnareOn_RubberTip_Halfway_Buzz_Roll_MF_D3_RR1.opus
</region>

<region>
hivel=127
key=E2
lovel=1
sample=Snare_SnareOn_RubberTip_Edge_Buzz_Roll_MF_D3_RR1.opus
</region>
</group>

<group>
amp_veltrack=0
ampeg_attack=0.01
ampeg_release=1.95
group_label=Rolls_RR1_RELEASE_0-25
offset=128000
seq_length=2
seq_position=1
trigger=release
xfin_hicc1=25
xfout_hicc1=50
xfout_locc1=25

<region>
hivel=127
key=D2
lovel=1
sample=Snare_SnareOn_RubberTip_Buzz_Roll_P_D3_RR1.opus
</region>

<region>
hivel=127
key=D#2
lovel=1
sample=Snare_SnareOn_RubberTip_Halfway_Buzz_Roll_P_D3_RR1.opus
</region>

<region>
hivel=127
key=E2
lovel=1
sample=Snare_SnareOn_RubberTip_Edge_Buzz_Roll_P_D3_RR1.opus
</region>
</group>

<group>
amp_veltrack=0
ampeg_attack=0.01
ampeg_release=1.95
group_label=Rolls_RR1_RELEASE_101-127
offset=128000
seq_length=2
seq_position=1
trigger=release
xfin_hicc1=127
xfin_locc1=101
xfout_hicc1=127
xfout_locc1=127

<region>
hivel=127
key=D2
lovel=1
sample=Snare_SnareOn_RubberTip_Buzz_Roll_FF_D3_RR1.opus
</region>

<region>
hivel=127
key=D#2
lovel=1
sample=Snare_SnareOn_RubberTip_Halfway_Buzz_Roll_FF_D3_RR1.opus
</region>

<region>
hivel=127
key=E2
lovel=1
sample=Snare_SnareOn_RubberTip_Edge_Buzz_Roll_FF_D3_RR1.opus
</region>
</group>

<group>
amp_veltrack=0
ampeg_attack=0.01
ampeg_release=1.95
group_label=Rolls_RR1_RELEASE_26-50
offset=128000
seq_length=2
seq_position=1
trigger=release
xfin_hicc1=50
xfin_locc1=26
xfout_hicc1=74
xfout_locc1=50

<region>
hivel=127
key=D2
lovel=1
sample=Snare_SnareOn_RubberTip_Buzz_Roll_MP_D3_RR1.opus
</region>

<region>
hivel=127
key=D#2
lovel=1
sample=Snare_SnareOn_RubberTip_Halfway_Buzz_Roll_MP_D3_RR1.opus
</region>

<region>
hivel=127
key=E2
lovel=1
sample=Snare_SnareOn_RubberTip_Edge_Buzz_Roll_MP_D3_RR1.opus
</region>
</group>

<group>
amp_veltrack=0
ampeg_attack=0.01
ampeg_release=1.95
group_label=Rolls_RR2_RELEASE_76-100
offset=128000
seq_length=2
seq_position=2
trigger=release
xfin_hicc1=100
xfin_locc1=76
xfout_hicc1=124
xfout_locc1=100

<region>
hivel=127
key=D2
lovel=1
sample=Snare_SnareOn_RubberTip_Buzz_Roll_F_D3_RR2.opus
</region>

<region>
hivel=127
key=D#2
lovel=1
sample=Snare_SnareOn_RubberTip_Halfway_Buzz_Roll_F_D3_RR2.opus
</region>

<region>
hivel=127
key=E2
lovel=1
sample=Snare_SnareOn_RubberTip_Edge_Buzz_Roll_F_D3_RR2.opus
</region>
</group>

<group>
amp_veltrack=0
ampeg_attack=0.01
ampeg_release=1.95
group_label=Rolls_RR2_RELEASE_51-75
offset=128000
seq_length=2
seq_position=2
trigger=release
xfin_hicc1=75
xfin_locc1=51
xfout_hicc1=99
xfout_locc1=75

<region>
hivel=127
key=D2
lovel=1
sample=Snare_SnareOn_RubberTip_Buzz_Roll_MF_D3_RR2.opus
</region>

<region>
hivel=127
key=D#2
lovel=1
sample=Snare_SnareOn_RubberTip_Halfway_Buzz_Roll_MF_D3_RR2.opus
</region>

<region>
hivel=127
key=E2
lovel=1
sample=Snare_SnareOn_RubberTip_Edge_Buzz_Roll_MF_D3_RR2.opus
</region>
</group>

<group>
amp_veltrack=0
ampeg_attack=0.01
ampeg_release=1.95
group_label=Rolls_RR2_RELEASE_0-25
offset=128000
seq_length=2
seq_position=2
trigger=release
xfin_hicc1=25
xfout_hicc1=50
xfout_locc1=25

<region>
hivel=127
key=D2
lovel=1
sample=Snare_SnareOn_RubberTip_Buzz_Roll_P_D3_RR2.opus
</region>

<region>
hivel=127
key=D#2
lovel=1
sample=Snare_SnareOn_RubberTip_Halfway_Buzz_Roll_P_D3_RR2.opus
</region>

<region>
hivel=127
key=E2
lovel=1
sample=Snare_SnareOn_RubberTip_Edge_Buzz_Roll_P_D3_RR2.opus
</region>
</group>

<group>
amp_veltrack=0
ampeg_attack=0.01
ampeg_release=1.95
group_label=Rolls_RR2_RELEASE_101-127
offset=128000
seq_length=2
seq_position=2
trigger=release
xfin_hicc1=127
xfin_locc1=101
xfout_hicc1=127
xfout_locc1=127

<region>
hivel=127
key=D2
lovel=1
sample=Snare_SnareOn_RubberTip_Buzz_Roll_FF_D3_RR2.opus
</region>

<region>
hivel=127
key=D#2
lovel=1
sample=Snare_SnareOn_RubberTip_Halfway_Buzz_Roll_FF_D3_RR2.opus
</region>

<region>
hivel=127
key=E2
lovel=1
sample=Snare_SnareOn_RubberTip_Edge_Buzz_Roll_FF_D3_RR2.opus
</region>
</group>

<group>
amp_veltrack=0
ampeg_attack=0.01
ampeg_release=1.95
group_label=Rolls_RR2_RELEASE_26-50
offset=128000
seq_length=2
seq_position=2
trigger=release
xfin_hicc1=50
xfin_locc1=26
xfout_hicc1=74
xfout_locc1=50

<region>
hivel=127
key=D2
lovel=1
sample=Snare_SnareOn_RubberTip_Buzz_Roll_MP_D3_RR2.opus
</region>

<region>
hivel=127
key=D#2
lovel=1
sample=Snare_SnareOn_RubberTip_Halfway_Buzz_Roll_MP_D3_RR2.opus
</region>

<region>
hivel=127
key=E2
lovel=1
sample=Snare_SnareOn_RubberTip_Edge_Buzz_Roll_MP_D3_RR2.opus
</region>
</group>